HIERARCHY
ROOT Hips
{
	OFFSET -14.64140 90.27770 -84.91600
	CHANNELS 6 Xposition Yposition Zposition Zrotation Xrotation Yrotation
	JOINT Spine
	{
		OFFSET 0.00000 13.20850 -1.60436
		CHANNELS 3 Zrotation Xrotation Yrotation
		JOINT Spine1
		{
			OFFSET 0.00000 8.61716 0.00000
			CHANNELS 3 Zrotation Xrotation Yrotation
			JOINT Spine2
			{
				OFFSET 0.00000 8.61717 0.00000
				CHANNELS 3 Zrotation Xrotation Yrotation
				JOINT Spine3
				{
					OFFSET 0.00000 8.61717 0.00000
					CHANNELS 3 Zrotation Xrotation Yrotation
					JOINT Neck
					{
						OFFSET 0.00000 11.07920 1.10792
						CHANNELS 3 Zrotation Xrotation Yrotation
						JOINT Neck1
						{
							OFFSET 0.00000 7.08032 0.00000
							CHANNELS 3 Zrotation Xrotation Yrotation
							JOINT Head
							{
								OFFSET 0.00000 7.08031 0.00000
								CHANNELS 3 Zrotation Xrotation Yrotation
								End site
								{
									OFFSET 0.00000 0.00000 0.00000
								}
							}
						}
					}
					JOINT RightShoulder
					{
						OFFSET -0.01000 7.91373 5.19711
						CHANNELS 3 Zrotation Xrotation Yrotation
						JOINT RightArm
						{
							OFFSET -18.41580 0.00000 0.00000
							CHANNELS 3 Zrotation Xrotation Yrotation
							JOINT RightForeArm
							{
								OFFSET -29.11090 0.00000 0.00000
								CHANNELS 3 Zrotation Xrotation Yrotation
								JOINT RightHand
								{
									OFFSET -24.65040 0.00000 0.00000
									CHANNELS 3 Zrotation Xrotation Yrotation
									JOINT RightHandThumb1
									{
										OFFSET -5.35114 -0.85590 3.97906
										CHANNELS 3 Zrotation Xrotation Yrotation
										JOINT RightHandThumb2
										{
											OFFSET -4.52789 0.00000 0.00000
											CHANNELS 3 Zrotation Xrotation Yrotation
											JOINT RightHandThumb3
											{
												OFFSET -2.46976 0.00000 0.00000
												CHANNELS 3 Zrotation Xrotation Yrotation
												End site
												{
													OFFSET 0.00000 0.00000 0.00000
												}
											}
										}
									}
									JOINT RightHandIndex1
									{
										OFFSET -14.26970 0.00000 2.88139
										CHANNELS 3 Zrotation Xrotation Yrotation
										JOINT RightHandIndex2
										{
											OFFSET -5.48836 0.00000 0.00000
											CHANNELS 3 Zrotation Xrotation Yrotation
											JOINT RightHandIndex3
											{
												OFFSET -3.01859 0.00000 0.00000
												CHANNELS 3 Zrotation Xrotation Yrotation
												End site
												{
													OFFSET 0.00000 0.00000 0.00000
												}
											}
										}
									}
									JOINT RightHandMiddle1
									{
										OFFSET -14.26970 0.00000 -0.09147
										CHANNELS 3 Zrotation Xrotation Yrotation
										JOINT RightHandMiddle2
										{
											OFFSET -6.17441 0.00000 0.00000
											CHANNELS 3 Zrotation Xrotation Yrotation
											JOINT RightHandMiddle3
											{
												OFFSET -3.56743 0.00000 0.00000
												CHANNELS 3 Zrotation Xrotation Yrotation
												End site
												{
													OFFSET 0.00000 0.00000 0.00000
												}
											}
										}
									}
									JOINT RightHandRing1
									{
										OFFSET -12.69180 0.00000 -3.06433
										CHANNELS 3 Zrotation Xrotation Yrotation
										JOINT RightHandRing2
										{
											OFFSET -5.62556 0.00000 0.00000
											CHANNELS 3 Zrotation Xrotation Yrotation
											JOINT RightHandRing3
											{
												OFFSET -3.56744 0.00000 0.00000
												CHANNELS 3 Zrotation Xrotation Yrotation
												End site
												{
													OFFSET 0.00000 0.00000 0.00000
												}
											}
										}
									}
									JOINT RightHandPinky1
									{
										OFFSET -11.11390 0.00000 -6.03719
										CHANNELS 3 Zrotation Xrotation Yrotation
										JOINT RightHandPinky2
										{
											OFFSET -4.52789 0.00000 0.00000
											CHANNELS 3 Zrotation Xrotation Yrotation
											JOINT RightHandPinky3
											{
												OFFSET -2.46976 0.00000 0.00000
												CHANNELS 3 Zrotation Xrotation Yrotation
												End site
												{
													OFFSET 0.00000 0.00000 0.00000
												}
											}
										}
									}
								}
							}
						}
					}
					JOINT LeftShoulder
					{
						OFFSET 0.01000 7.91373 5.19711
						CHANNELS 3 Zrotation Xrotation Yrotation
						JOINT LeftArm
						{
							OFFSET 18.41580 0.00000 0.00000
							CHANNELS 3 Zrotation Xrotation Yrotation
							JOINT LeftForeArm
							{
								OFFSET 29.11090 0.00000 0.00000
								CHANNELS 3 Zrotation Xrotation Yrotation
								JOINT LeftHand
								{
									OFFSET 24.65040 0.00000 0.00000
									CHANNELS 3 Zrotation Xrotation Yrotation
									JOINT LeftHandThumb1
									{
										OFFSET 5.35114 -0.85590 3.97906
										CHANNELS 3 Zrotation Xrotation Yrotation
										JOINT LeftHandThumb2
										{
											OFFSET 4.52789 0.00000 0.00000
											CHANNELS 3 Zrotation Xrotation Yrotation
											JOINT LeftHandThumb3
											{
												OFFSET 2.46977 0.00000 0.00000
												CHANNELS 3 Zrotation Xrotation Yrotation
												End site
												{
													OFFSET 0.00000 0.00000 0.00000
												}
											}
										}
									}
									JOINT LeftHandIndex1
									{
										OFFSET 14.26970 0.00000 2.88139
										CHANNELS 3 Zrotation Xrotation Yrotation
										JOINT LeftHandIndex2
										{
											OFFSET 5.48836 0.00000 0.00000
											CHANNELS 3 Zrotation Xrotation Yrotation
											JOINT LeftHandIndex3
											{
												OFFSET 3.01859 0.00000 0.00000
												CHANNELS 3 Zrotation Xrotation Yrotation
												End site
												{
													OFFSET 0.00000 0.00000 0.00000
												}
											}
										}
									}
									JOINT LeftHandMiddle1
									{
										OFFSET 14.26970 0.00000 -0.09147
										CHANNELS 3 Zrotation Xrotation Yrotation
										JOINT LeftHandMiddle2
										{
											OFFSET 6.17440 0.00000 0.00000
											CHANNELS 3 Zrotation Xrotation Yrotation
											JOINT LeftHandMiddle3
											{
												OFFSET 3.56744 0.00000 0.00000
												CHANNELS 3 Zrotation Xrotation Yrotation
												End site
												{
													OFFSET 0.00000 0.00000 0.00000
												}
											}
										}
									}
									JOINT LeftHandRing1
									{
										OFFSET 12.69180 0.00000 -3.06433
										CHANNELS 3 Zrotation Xrotation Yrotation
										JOINT LeftHandRing2
										{
											OFFSET 5.62556 0.00000 0.00000
											CHANNELS 3 Zrotation Xrotation Yrotation
											JOINT LeftHandRing3
											{
												OFFSET 3.56744 0.00000 0.00000
												CHANNELS 3 Zrotation Xrotation Yrotation
												End site
												{
													OFFSET 0.00000 0.00000 0.00000
												}
											}
										}
									}
									JOINT LeftHandPinky1
									{
										OFFSET 11.11390 0.00000 -6.03719
										CHANNELS 3 Zrotation Xrotation Yrotation
										JOINT LeftHandPinky2
										{
											OFFSET 4.52789 0.00000 0.00000
											CHANNELS 3 Zrotation Xrotation Yrotation
											JOINT LeftHandPinky3
											{
												OFFSET 2.46976 0.00000 0.00000
												CHANNELS 3 Zrotation Xrotation Yrotation
												End site
												{
													OFFSET 0.00000 0.00000 0.00000
												}
											}
										}
									}
								}
							}
						}
					}
					JOINT pCube4
					{
						OFFSET 0.00000 10.91090 1.10792
						CHANNELS 3 Zrotation Xrotation Yrotation
						End site
						{
							OFFSET 0.00000 0.00000 0.00000
						}
					}
				}
			}
		}
	}
	JOINT RightUpLeg
	{
		OFFSET -9.98441 0.00000 0.00000
		CHANNELS 3 Zrotation Xrotation Yrotation
		JOINT RightLeg
		{
			OFFSET 0.00000 -42.11790 0.00000
			CHANNELS 3 Zrotation Xrotation Yrotation
			JOINT RightFoot
			{
				OFFSET 0.00000 -45.00020 -0.00001
				CHANNELS 3 Zrotation Xrotation Yrotation
				JOINT RightForeFoot
				{
					OFFSET 0.00000 -3.74820 0.00000
					CHANNELS 3 Zrotation Xrotation Yrotation
					JOINT RightToeBase
					{
						OFFSET 0.00000 0.06325 14.43120
						CHANNELS 3 Zrotation Xrotation Yrotation
						End site
						{
							OFFSET 0.00000 0.00000 0.00000
						}
					}
				}
			}
		}
	}
	JOINT LeftUpLeg
	{
		OFFSET 9.98441 0.00000 0.00000
		CHANNELS 3 Zrotation Xrotation Yrotation
		JOINT LeftLeg
		{
			OFFSET 0.00000 -42.11800 0.00000
			CHANNELS 3 Zrotation Xrotation Yrotation
			JOINT LeftFoot
			{
				OFFSET 0.00000 -45.00070 0.00000
				CHANNELS 3 Zrotation Xrotation Yrotation
				JOINT LeftForeFoot
				{
					OFFSET 0.00000 -3.74824 0.00000
					CHANNELS 3 Zrotation Xrotation Yrotation
					JOINT LeftToeBase
					{
						OFFSET 0.00000 0.06325 14.43110
						CHANNELS 3 Zrotation Xrotation Yrotation
						End site
						{
							OFFSET 0.00000 0.00000 0.00000
						}
					}
				}
			}
		}
	}
}
MOTION
Frames: 4
Frame Time: 0.050000
0.018736449273212854 -0.04417405814810562 -0.009767932533517217 0.03380062066448951 -0.012790516838909943 -0.01225881182239281 -2.638094019916151 1.1913506667998248 -0.6829291651942833 -0.9537912915799949 3.668483256945549 0.3923066873933956 -1.235035336945469 -2.006347265209749 -0.9198038752316577 -0.553913817603057 0.2147609273375251 -0.863579304080684 -0.6747714571312717 13.628258056436852 1.4232298430445143 -0.3168332651207314 0.6809811347183025 1.0248549011928891 -0.6817031961426805 -13.849875370800714 0.15999668425446778 -7.053072789693423 2.383240696289893 -12.69723304085437 63.93757174581702 5.356403074743275 24.521865481052764 17.590873754438423 -4.33290868171397 75.19014272260466 17.56476207255204 -0.3678433116504211 -3.5064424515656114 4.557684044331351 -0.11509071943356519 -1.6281338034037312 0.030238445804482105 0.03628794334368098 -56.19902594696614 -0.029240373600940183 -0.04364925495330201 -56.264730388451284 -38.789238556609845 -0.03637168856609466 0.025202670110253747 -0.049628769548567736 0.03472938296961834 -0.03155612815616147 0.025699608280070133 -0.018947642693076593 0.009372012328897601 -36.691116552307115 -0.013483937580749235 0.030048591040353387 -0.042970229385566557 0.00652404217564527 -0.013827520611410668 0.0056414491138568005 0.0035023939797049763 0.026889613190032084 -19.76720050876386 -0.04957803382079147 -0.00992533179599479 0.00229954767800403 0.027757764441661486 -0.010667165123632714 0.005548086957674729 0.043650585827450274 -0.0067192957720987635 24.087396854486524 -0.04729038383330221 0.0388065587077396 28.87469384412538 -0.01981566832037009 -0.02466951469464426 28.877004484703843 -0.012548887472415601 -0.049045637245986096 8.810080410785874 1.9633066331644293 12.065513683021928 -63.65624093201802 13.914440084781639 -24.181697528246875 -38.091399723171264 3.3670648443689877 -77.84003463900105 -13.108536801221993 -0.2074450959715779 1.1312699879890573 -0.5125564621186048 0.02905872962330336 -8.147717459526698 0.0075909427101255745 -0.025679364934638953 44.561104311400285 0.030965474806322432 0.030574932649410098 44.553894469827746 12.45432144564739 0.03927141749059472 -0.018911110277079368 0.01815763578987145 0.0245799466907079 -0.046111080508575486 -0.028398965729522337 0.031427083659394166 -0.02103900197396046 11.121724315227091 0.02712764991564983 0.030776835550540324 -0.0009621832983401107 -0.011628677733831017 0.01920150089637477 -0.04795267703163788 -0.03300626839208846 0.03760675394202603 4.776637369046208 0.049917980538697566 -0.0202449616997094 0.037842345899813834 -0.00789436632829742 -0.048605212601460585 -0.004261796802828544 0.0032163579127400103 0.04197076001594231 -5.5973796116109025 -0.0021699546653724203 -0.007204299602897201 -6.676925160849678 0.026656386300772543 -0.0012864548222246875 -6.687941204003325 0.01714815608065603 0.049031083708555065 -0.0012376424393314772 -0.0359331227856022 0.011432227314893831 8.01198950175112 3.444456249759184 -19.2098011986743 -0.017407860539652965 10.434911814414406 -0.0017782571924357844 -5.605883339423173 -15.634970331390493 3.186879837744074 -0.025906373626081898 0.011500208949560563 0.029406438903717042 0.02489913156180778 4.679894767747793 -0.0142178846955064 12.43780418459733 -8.235351184928875 6.877945284009136 -0.004676028946316499 46.38045196045451 0.03150233879189955 -4.283880299867624 -14.79256859353006 -3.8453717484844123 -0.012080205743702046 -0.016212875471283604 0.001708505292477881 -0.007607887414980985 -10.747719311060143 0.03798395454290492 
-0.044442384840013706 -0.003164537924427313 0.040833548072802865 0.049152684777619145 -0.04928203018646906 -0.03867051616620494 -2.7227008396503596 1.2260528377420863 -0.7226675260111377 -1.0239332784763384 3.662430877062854 0.3447518844124625 -1.2078588537160555 -1.9384014851182594 -1.0368194480680768 -0.493485633900427 0.24456520458575198 -0.849799268844918 -0.6413266910395131 13.414960309516044 1.3809021300275461 -0.2569061222522276 0.5127899048742804 0.9153167106199075 -0.7734891826780357 -14.059066339349288 0.16468111321003984 -6.847689846289817 2.347204800219832 -12.78442825865151 63.64993830649139 6.322570015181555 23.27933490910535 19.02816934468971 -5.406135672288695 72.64692723221913 17.867313212934768 -0.3025080423291075 -3.521933236060524 4.500272140571307 -0.11140987223497376 -1.545985562780848 0.0004032425772662346 0.0005107329231756139 -56.27960077449368 -0.0072239542961397675 -0.043435161994792096 -56.218707488775685 -38.782714481468645 -0.014829114039324687 0.006140175400960508 -0.014111812147213751 0.011742062739075939 0.016635892291073453 0.01754271804871438 -0.003990695224925579 0.034965942175103126 -36.71867558617403 0.04916626522400974 0.04102271705988568 -0.010416693136512695 -0.04175757831092289 -0.045762313518351236 0.046821199250999194 -0.022741358107757705 -0.04107061837245175 -19.75985011772622 -0.0261019900790344 -0.024156460349362516 0.009567637628341152 0.008717130229727043 0.023690005226347392 -0.04050238505150703 -0.04606938495395627 0.03650110678017752 24.047853406606404 -0.02365273952596888 0.016008202921534036 28.846786350675863 0.0002661950967129338 -0.025582424808735578 28.81527271492368 0.044778137459142095 -0.003975010784845196 8.513416912341267 1.824265130400074 11.990439677138909 -64.10854430535707 14.429164168857735 -22.69228269626185 -42.762494618635586 4.641631539419496 -76.53166525284684 -12.996107802072373 0.47374241904420494 0.6899427197344028 -0.5213465549023408 0.10301796014468484 -8.171045898409611 -0.04662642893372295 0.007688605826755003 44.58846680555604 -0.017100801791108122 -0.005039479288096957 44.58526590053026 12.459371375479787 -0.019700316790081288 0.04032188158772655 -0.041556674493542646 0.022501544375360855 0.013835807786690173 -0.017687956577608795 0.041858027140729066 -0.03426748740730006 11.068978420626019 0.0036681564634940354 0.013886707269035918 -0.0172765712533577 -0.046469595835468266 0.029727235536747047 0.033991681995889075 0.012143203259751984 0.0008356556939311425 4.794453386138895 -0.0481833278667912 -0.031911015187008125 -0.025077402212607205 0.030958940451088258 0.03384424922556262 -0.01827976180229705 -0.009592429829856962 0.025830493582039232 -5.609832789972923 -0.012176711330702757 -0.0021773222149308797 -6.7425939033426765 0.027633547211858622 -0.03432807656841353 -6.7053216817196555 -0.010602345983825806 -0.030365808326447773 -0.030026827152014296 -0.03585245612588594 0.04939171482906814 8.032950743793833 3.469511456980994 -19.268380029746407 0.0080825051058924 10.387737061409402 0.06092228823282603 -5.634889603671141 -15.7095764673434 3.2170357682648207 0.019100993661369626 0.04314000793410226 -0.03635110436424627 0.0038110230333895318 4.718399525318853 -0.023746073696211838 12.462144470206917 -8.20148376343035 6.906697112002575 0.009246127451973635 46.3765245438565 0.0027299740929231445 -4.371223102637946 -14.745482480107633 -3.8832766128779497 0.021779795489959383 -0.0033495800240193156 0.0020108977848842346 0.014402385317451768 -10.736840952411855 -0.005823860312901492 
0.014742571894181076 -0.021954454754949147 -0.014023167619292754 0.0017944520269188497 -0.02352489893388577 -0.01860433550828609 -2.7544230216496617 1.3224064082479243 -0.710780463354644 -1.0543340332957196 3.7048982315476975 0.3716643995075237 -1.2053578705103194 -1.9090384921232668 -1.083069809646578 -0.34243189147100045 0.26192251400924393 -0.8356600053177395 -0.6432772072583562 13.192773627838886 1.2139845601854549 -0.3518499885741848 0.32319519723608703 0.558388739159623 -0.666176749352548 -14.260124643597129 0.14085182271045885 -6.624516458336341 2.227378041426528 -12.83957116430964 63.49124311225 7.136505898771433 21.639342623810272 21.704137246353238 -6.111093987756378 69.80489843029642 18.221438400626557 -0.3050221175944565 -3.526299430485118 4.548689653416918 -0.11293700613902519 -1.5944624797289755 -0.04223555019900097 -0.04639292592108191 -56.25743877404973 -0.001907663944472501 -0.0019976524575121635 -56.2695532027324 -38.784555218419236 0.014508800079988445 -0.02333088995864312 0.04323840438854618 -0.016935542329891806 -0.033916292377889685 0.031383993791069334 0.049387546163784296 0.03948210855796005 -36.696812962415144 0.023080690254416295 0.011220930974044922 0.01991053990872177 -0.020108553662274282 -0.03452985568308553 -0.028548064014465697 -0.037702356235261296 -0.03107861616839043 -19.712112420003518 0.014474277338813247 0.01233138922032494 -0.035270682290013164 0.014917741273454924 0.014207068243512628 -0.024024412308185725 0.024815689331294088 -0.004335841171187084 24.075000636300096 0.0349279441039316 -0.022201677640038275 28.850325295049906 0.04190145574636368 0.03016535804483392 28.860446980697514 -0.03196116373926076 0.005985310392959271 8.031447541860198 1.771495187986552 11.963349721756169 -64.65477612119113 14.83254812684251 -20.26183119540286 -46.201426112617945 4.883342645854016 -74.42596501033931 -12.944281460109858 1.2325487971515354 0.3017572052989971 -0.4826942829782075 0.08138096728839528 -8.10339132156257 -0.03653291469517177 0.022309967586607745 44.524624367154985 0.035259435881144496 0.0028173944641816224 44.5292387203821 12.447351848597918 0.023531434998568725 -0.03124937757533804 0.004352435786778723 -0.04741312685838626 -0.004178403420126057 0.03518520144446027 0.00982369043698261 -0.02736180604601763 11.109856056572061 -0.020804525613349417 0.03172831319253254 0.0027915356553575325 0.025325684741468336 0.03786299605801972 -0.004961745640541028 0.009806492160994917 -0.013047565104701018 4.794164927081087 0.04108482907730523 -0.02054448575039335 -0.02673667913724746 0.009099351828254238 -0.020404471342356942 0.02748887235701228 0.005184764282345943 0.03323450080584888 -5.612923055683505 0.04128703092961565 -0.04118375181418768 -6.704812425816898 0.008931853274078165 -0.03900680787004304 -6.698938144958329 0.03756367917863534 0.030140254802863642 -0.041610105485142636 0.0183955010970977 -0.00688877139433563 8.042006636615303 3.489754708871766 -19.22085289763158 -0.020275639949387244 10.41166313835934 -0.023880280918161165 -5.631585848455703 -15.630200939572564 3.2375608956960673 -0.03274651293164727 0.0048519380791793455 -0.004726648266130775 0.0008124015799055203 4.689442810560665 0.0017256845376262364 12.439809347475796 -8.207554730841139 6.887420158249494 0.023041851654807842 46.35651227626911 -0.02901738020856041 -4.34356803482039 -14.762563400036697 -3.804243733338363 0.02958722182517168 -0.04340437816272556 -0.011969702967773041 -0.027263314148715894 -10.792607841782488 -0.024897715459640354 
-0.029170681390695747 -0.006500338248508027 -0.01658588752677848 -0.0352808266700901 0.04700017466553609 -0.04524909656191975 -2.7710032997185956 1.4443041130746026 -0.7224242326207525 -0.9910141870786847 3.7653218564805537 0.352761029979348 -1.2938614560385056 -1.8517544151246519 -0.9291637243334876 -0.24147199689020377 0.30709347425000977 -0.8406216436824506 -0.5283479793932183 13.005571075699267 0.8879452360446217 -0.3722840858369031 0.15336251863211453 -0.2580509476383203 -0.6307804692131244 -14.606324541787105 0.04150108529288511 -6.47632152211553 2.177735248351898 -13.026553535316129 63.40846276187981 7.639544380961331 20.343842304860548 23.90182562678503 -6.874386192709511 67.42605292457513 18.38174683657992 -0.2756086798588589 -3.4997591250419227 4.533944573812864 -0.12519209271597234 -1.625843732487561 0.04321861975216022 -0.01212209646332858 -56.22280643640862 0.020884832529445327 0.049773767219307305 -56.203074976359815 -38.80228787114382 0.013073376593271752 0.00667940615020857 -0.04216798530056677 0.0012562541028978318 -0.015077083836005973 0.02730913236976885 0.027364497922218345 0.029519586074786358 -36.701482116113766 -0.01880321021077276 0.03418813010367029 -0.029434891827996832 -0.010855468033812089 0.02155342185732092 0.0008479724638464389 -0.02944051955126715 0.007847890554499116 -19.787676234915008 -0.030436240507169837 0.01092999468881382 0.033632811735418204 -0.0168067875046035 -0.013428525805762948 -0.01764845805943834 -0.02252583657116912 -0.04096199720615591 24.059097625746475 0.0124607323618457 -0.013872753996814773 28.898585936915072 0.007281536523419309 0.043120348405019444 28.837047499428447 0.01244595249724351 0.015784883331054857 7.398440429484604 1.6453271116739911 12.038205409502556 -65.15544554785316 15.688630242008315 -17.347060314971785 -45.48892476592547 3.779356314268321 -70.6690369328336 -12.52313607906176 1.80946564298049 -0.10205488544055435 -0.5047124529759524 0.03281237930285145 -8.147589159757617 -0.0070607107245843825 -0.022152052309228558 44.582679640304995 0.0470063958044668 0.0025934872733836415 44.5786070412771 12.497090784458496 0.02871633420661691 -0.0036903285653012694 0.016934143891544372 0.007005802921827902 -0.004292255870881084 -0.01418360604199763 0.007645794549936216 0.014594583017748904 11.132264327285554 0.047049148103090105 -0.030801414107781977 0.021154453529878114 -0.011755872927179011 -0.0014502912264439808 -0.013199586563991278 -0.023888146934829872 -0.029701481128897374 4.769945589776164 0.02511860064536101 -0.0468991087156045 0.028709427651937514 0.009987741331309433 0.0011715591219720537 0.0364475148282439 0.013657360353546085 0.01769519985155649 -5.5729038662742925 0.024507904935904868 -0.03632697065590194 -6.680669870953049 0.016451261846388336 0.037176334164239135 -6.6939486801703865 0.021818056799680435 -0.034696846300321466 -0.04587373385758947 0.01369479487156611 -0.017215806319655073 8.056629848293314 3.449890973191927 -19.26399049209438 -0.03279038557767387 10.433950253491306 0.0014352815805476343 -5.637428170378291 -15.611906505880272 3.1801318355352595 -0.018692551761656184 -0.04350580307210081 0.037104839797595116 0.009034099707415642 4.683870061974731 0.021141047442853108 12.494623471484315 -8.267818721049535 6.911801730150828 -0.018163847615874352 46.40456509453192 0.020358459476604866 -4.323828994288469 -14.749057645944363 -3.8251093008438013 -0.006751290342270636 -0.03435349637312286 -0.01659869637853619 0.033483755633058394 -10.781569638815428 -0.04646628726887917 
